<svg width="84" height="80" viewBox="0 0 84 80" fill="none" xmlns="http://www.w3.org/2000/svg">
<g clip-path="url(#clip0_20180_5843)">
<path d="M51.6446 74.8993L49.9728 74.1251C50.5593 72.8534 51.115 71.5621 51.6552 70.2611L53.366 70.9735C52.816 72.29 52.2352 73.5869 51.6446 74.8993ZM54.9443 67.0006L53.1945 66.35C53.6785 65.0352 54.1472 63.7106 54.5597 62.3723L56.3486 62.9611C55.9108 64.3051 55.4324 65.6451 54.9443 67.0006ZM57.5325 58.8257L55.6949 58.3141C56.0611 56.9465 56.3614 55.5806 56.6423 54.2455L58.4457 54.6059C58.2713 55.9433 57.9027 57.4174 57.5325 58.8257ZM59.2117 50.3796L57.3864 50.1566C57.5372 48.8907 57.6627 47.6305 57.7534 46.3914L57.7589 46.0061L59.6061 46.0916L59.5811 46.5079C59.5116 47.7819 59.382 49.0828 59.2117 50.3796ZM59.6753 41.7713L57.8217 41.8329C57.7968 40.4345 57.6906 39.028 57.53 37.6736L59.3649 37.4705C59.5369 38.8753 59.6391 40.3225 59.7046 41.7249L59.6753 41.7713ZM58.6284 33.1602L56.818 33.53C56.5354 32.1634 56.187 30.7985 55.7898 29.5108L57.5449 28.9549C58.021 30.3572 58.3906 31.757 58.6902 33.1992L58.6284 33.1602ZM56.054 24.8814L54.3543 25.6235C53.8078 24.352 53.1912 23.1119 52.5074 21.9087L54.1169 21.0016C54.8685 22.2753 55.5348 23.5816 56.1158 24.9204L56.054 24.8814ZM51.7294 17.3561L50.2566 18.4574L49.5498 17.5576C48.9373 16.7822 48.3265 16.0727 47.588 15.3258L48.9185 14.005C49.6472 14.7674 50.3564 15.5606 51.0152 16.3653L51.7294 17.3561ZM45.6329 11.1322L44.5034 12.5797C43.6845 12.0629 42.9127 11.403 42.0784 10.8765C41.7539 10.6717 41.4294 10.467 41.105 10.2622L42.08 8.71715C42.42 8.93166 42.7753 9.15593 43.1152 9.37045C43.9959 9.92624 44.8628 10.5381 45.6484 11.1419L45.6329 11.1322ZM37.3905 8.47974C36.121 7.96227 34.8162 7.53591 33.486 7.20388L33.9667 5.34678C35.3814 5.70053 36.7685 6.15709 38.1167 6.71283L37.3905 8.47974ZM29.4549 6.53943C28.0936 6.42688 26.7252 6.43062 25.3646 6.55061L25.2119 4.70432C26.6545 4.56905 28.106 4.55984 29.5502 4.67679L29.4549 6.53943Z" fill="#F1F1F1"/>
<path d="M60.1264 71.9346L59.4096 70.2292L51.0604 73.8394L48.0729 65.2567L46.3137 65.8532L49.967 76.3251L60.1264 71.9346Z" fill="#F1F1F1"/>
</g>
<defs>
<clipPath id="clip0_20180_5843">
<rect width="52.9651" height="65.334" fill="white" transform="translate(0 44.7913) rotate(-57.7443)"/>
</clipPath>
</defs>
</svg>
