<svg width="50" height="50" viewBox="0 0 50 50" fill="none" xmlns="http://www.w3.org/2000/svg">
<g clip-path="url(#clip0_20180_5873)">
<path d="M28.2821 10.8795H13.145C12.7407 10.8795 12.4126 11.2076 12.4126 11.6119C12.4126 12.0167 12.7407 12.3447 13.145 12.3447H28.2821C28.6869 12.3447 29.0146 12.0167 29.0146 11.6119C29.0146 11.2076 28.6869 10.8795 28.2821 10.8795Z" fill="#EF6D00"/>
<path d="M28.2821 14.4165H13.145C12.7407 14.4165 12.4126 14.7446 12.4126 15.1489C12.4126 15.5537 12.7407 15.8814 13.145 15.8814H28.2821C28.6869 15.8814 29.0146 15.5537 29.0146 15.1489C29.0146 14.7446 28.6869 14.4165 28.2821 14.4165Z" fill="#EF6D00"/>
<path d="M28.2821 17.9531H13.145C12.7407 17.9531 12.4126 18.2812 12.4126 18.6859C12.4126 19.0903 12.7407 19.4184 13.145 19.4184H28.2821C28.6869 19.4184 29.0146 19.0903 29.0146 18.6859C29.0146 18.2812 28.6869 17.9531 28.2821 17.9531Z" fill="#EF6D00"/>
<path d="M28.2821 21.4901H13.145C12.7407 21.4901 12.4126 21.8182 12.4126 22.2225C12.4126 22.6273 12.7407 22.955 13.145 22.955H28.2821C28.6869 22.955 29.0146 22.6273 29.0146 22.2225C29.0146 21.8182 28.6869 21.4901 28.2821 21.4901Z" fill="#EF6D00"/>
<path d="M28.2821 25.0271H13.145C12.7407 25.0271 12.4126 25.3548 12.4126 25.7595C12.4126 26.1639 12.7407 26.4919 13.145 26.4919H28.2821C28.6869 26.4919 29.0146 26.1639 29.0146 25.7595C29.0146 25.3548 28.6869 25.0271 28.2821 25.0271Z" fill="#EF6D00"/>
<path d="M36.4039 33.0055L34.7308 32.7625L33.9831 31.247C33.6047 30.4798 32.5102 30.4802 32.1318 31.247L31.3837 32.7625L29.7114 33.0055C28.8653 33.1284 28.5269 34.1694 29.1392 34.766L30.3496 35.9459L30.0639 37.6122C29.9193 38.4548 30.8047 39.0976 31.5615 38.7001L33.0576 37.9135L34.5537 38.7001C35.3102 39.098 36.1956 38.4548 36.051 37.6122L35.7653 35.9463L36.9757 34.766C37.588 34.169 37.2496 33.1284 36.4039 33.0055ZM34.5797 35.0556C34.3363 35.2928 34.2253 35.6343 34.2829 35.9692L34.4588 36.995L33.5375 36.5105C33.2369 36.3526 32.878 36.3526 32.577 36.5105L31.6557 36.995L31.832 35.9684C31.8892 35.6339 31.7782 35.2925 31.5352 35.0556L30.7898 34.3292L31.8194 34.1793C32.1558 34.1305 32.4465 33.9195 32.5968 33.6147L33.0572 32.6817L33.5181 33.6151C33.6687 33.9199 33.959 34.1309 34.2951 34.1793L35.3251 34.3292L34.5797 35.0556Z" fill="#EF6D00"/>
<path d="M8.30574 40.9085H25.409L22.6776 45.6647C22.2798 46.357 22.8394 47.2077 23.6298 47.1192L26.4755 46.8057L27.6386 49.4214C27.9625 50.15 28.9784 50.2023 29.3751 49.511L33.0574 43.0989L36.7401 49.511C37.1369 50.2023 38.1527 50.15 38.4766 49.4214L39.6397 46.8053L42.4847 47.1192C43.2755 47.207 43.8355 46.3574 43.4376 45.6647L39.8297 39.3819C40.3885 38.5415 40.7917 37.6008 41.0069 36.6093C41.0927 36.2141 40.8417 35.8239 40.4465 35.7384C40.0509 35.6526 39.6611 35.9036 39.5752 36.2988C38.971 39.0855 36.5895 41.2381 33.6876 41.5177C29.7982 41.8824 26.5671 38.8852 26.3954 35.2173C26.2081 31.495 29.1126 28.3169 32.8701 28.2116C35.9776 28.1258 38.7448 30.1896 39.5203 33.2177C39.6206 33.6094 40.0189 33.846 40.4114 33.7453C40.8036 33.6453 41.0397 33.2459 40.9394 32.8541C40.1814 29.8943 37.8537 27.67 34.9819 26.973V7.91055C34.9819 7.71295 34.8984 7.52374 34.7676 7.3929L27.5894 0.214386C27.4498 0.0747682 27.256 0 27.0714 0H21.2517C20.8473 0 20.5193 0.328065 20.5193 0.732423C20.5193 1.13716 20.8473 1.46485 21.2517 1.46485H26.339V6.78254C26.339 7.8087 27.1736 8.64336 28.1994 8.64336H33.5171V26.7556C31.4072 26.6423 29.459 27.3243 27.9343 28.5637H13.1451C12.7407 28.5637 12.4126 28.8918 12.4126 29.2965C12.4126 29.7009 12.7407 30.029 13.1451 30.029H26.529C26.0617 30.6565 25.6829 31.3531 25.4105 32.1007H13.1451C12.7407 32.1007 12.4126 32.4288 12.4126 32.8332C12.4126 33.2375 12.7407 33.5656 13.1451 33.5656H25.029C24.7036 35.5637 25.1267 37.6462 26.2837 39.3853C26.2577 39.4307 26.2604 39.4261 26.2501 39.4437H8.30574C8.08754 39.4437 7.91016 39.2663 7.91016 39.0481V1.86043C7.91016 1.64223 8.08754 1.46485 8.30574 1.46485H17.8337C18.2385 1.46485 18.5661 1.13716 18.5661 0.732423C18.5661 0.328065 18.2385 0 17.8337 0H8.30574C7.27997 0 6.44531 0.834657 6.44531 1.86043V39.0481C6.44531 40.0738 7.27997 40.9085 8.30574 40.9085ZM38.8405 40.601L41.6867 45.5575L39.4444 45.3103C39.0213 45.2634 38.6196 45.4938 38.4465 45.8833L37.5298 47.9447L34.6127 42.8651C36.2171 42.5545 37.6881 41.7672 38.8405 40.601ZM28.1994 7.17813C27.9816 7.17813 27.8038 7.00074 27.8038 6.78254V2.50092C28.4958 3.19253 31.7898 6.48652 32.4814 7.17813H28.1994ZM27.2747 40.601C28.4641 41.805 29.9568 42.5656 31.5026 42.8651L28.5855 47.9447L27.6688 45.8833C27.4941 45.4903 27.0905 45.2634 26.6709 45.3103L24.4282 45.5575L27.2747 40.601Z" fill="#EF6D00"/>
</g>
<defs>
<clipPath id="clip0_20180_5873">
<rect width="50" height="50" fill="white"/>
</clipPath>
</defs>
</svg>
