<svg width="50" height="50" viewBox="0 0 50 50" fill="none" xmlns="http://www.w3.org/2000/svg">
<path d="M41.1767 19.1324V18.7721C41.1767 17.5441 40.3237 16.5221 39.1767 16.25C39.0001 12.4412 36.1326 9.33823 32.434 8.77941V2.94117H34.4046C34.809 2.94117 35.1399 2.61771 35.1399 2.20588C35.1399 1.80146 34.809 1.47058 34.4046 1.47058H15.5958C15.1914 1.47058 14.8605 1.80146 14.8605 2.20588C14.8605 2.61771 15.1914 2.94117 15.5958 2.94117H17.559V8.77941C13.8605 9.33823 10.9928 12.4412 10.8164 16.25C9.67667 16.5221 8.82373 17.5441 8.82373 18.7721V19.1324C8.82373 20.3529 9.66932 21.375 10.8017 21.6471V23.4485C10.8017 23.8529 11.1326 24.1838 11.537 24.1838C11.9414 24.1838 12.2723 23.8529 12.2723 23.4485V21.7279H37.7282V31.9412H12.2723V26.3897C12.2723 25.9853 11.9414 25.6544 11.537 25.6544C11.1326 25.6544 10.8017 25.9853 10.8017 26.3897V32.0221C9.66932 32.3015 8.82373 33.3162 8.82373 34.5368V34.8971C8.82373 36.125 9.67667 37.1471 10.8164 37.4191C10.9781 40.8456 13.309 43.7059 16.4708 44.6544V46.3235C16.4708 47.5368 17.4634 48.5294 18.684 48.5294H31.3164C32.537 48.5294 33.5295 47.5368 33.5295 46.3235V44.6544C36.684 43.7059 39.0222 40.8456 39.1767 37.4191C40.3237 37.1471 41.1767 36.125 41.1767 34.8971V34.5368C41.1767 33.3162 40.3311 32.3015 39.1987 32.0221V21.6471C40.3311 21.375 41.1767 20.353 41.1767 19.1324ZM19.0296 2.94117H30.9634V8.68389H27.1473V6.17646H27.934C28.3458 6.17646 28.6693 5.84558 28.6693 5.44117C28.6693 5.02941 28.3458 4.70588 27.934 4.70588H22.059C21.6546 4.70588 21.3237 5.02941 21.3237 5.44117C21.3237 5.84558 21.6546 6.17646 22.059 6.17646H22.8458V8.68382H19.0296V2.94117ZM25.6767 6.17646V8.68382H24.3164V6.17646H25.6767ZM32.059 46.3235C32.059 46.7279 31.7208 47.0588 31.3165 47.0588H18.684C18.2722 47.0588 17.9414 46.7279 17.9414 46.3235V44.9854H32.059V46.3235ZM39.7061 34.5368V34.8971C39.7061 35.5221 39.1987 36.0221 38.5811 36.0221H32.1473C31.7355 36.0221 31.412 36.3529 31.412 36.7574C31.412 37.1691 31.7355 37.4927 32.1473 37.4927H37.7061C37.4708 40.8529 34.6767 43.5147 31.2649 43.5147H18.7355C15.3237 43.5147 12.5223 40.8529 12.2944 37.4927H27.5002C27.9046 37.4927 28.2355 37.1691 28.2355 36.7574C28.2355 36.3529 27.9046 36.0221 27.5002 36.0221H11.4193C10.7943 36.0221 10.2943 35.5221 10.2943 34.8971V34.5368C10.2943 33.9191 10.7943 33.4118 11.4193 33.4118H38.5811C39.1987 33.4118 39.7061 33.9191 39.7061 34.5368ZM38.5811 20.2574H11.4193C10.7943 20.2574 10.2943 19.7574 10.2943 19.1324V18.7721C10.2943 18.1544 10.7943 17.6471 11.4193 17.6471H16.4267C16.8384 17.6471 17.162 17.3162 17.162 16.9118C17.162 16.5073 16.8384 16.1765 16.4267 16.1765H12.2943C12.5223 12.8162 15.3237 10.1545 18.7354 10.1545H31.2648C34.6766 10.1545 37.4707 12.8162 37.706 16.1765H20.3017C19.8899 16.1765 19.5664 16.5073 19.5664 16.9118C19.5664 17.3162 19.8899 17.6471 20.3017 17.6471H38.5811C39.1987 17.6471 39.7061 18.1544 39.7061 18.7721V19.1324C39.7061 19.7574 39.1987 20.2574 38.5811 20.2574Z" fill="#EF6D00"/>
</svg>
