<svg width="50" height="50" viewBox="0 0 50 50" fill="none" xmlns="http://www.w3.org/2000/svg">
<g clip-path="url(#clip0_20180_5861)">
<path d="M48.5227 12.8481L36.9016 1.22694C35.2656 -0.409027 32.6038 -0.40893 30.9674 1.22694L24.4326 7.7618C24.0513 8.14304 24.0513 8.76123 24.4326 9.14256C24.8139 9.5238 25.432 9.5238 25.8133 9.14256L32.3482 2.6077C33.2231 1.73285 34.6465 1.73304 35.5209 2.6077L47.1421 14.2288C48.0168 15.1035 48.0168 16.5268 47.1421 17.4016L27.9955 36.548C27.5718 36.9718 27.0084 37.2051 26.4092 37.2051C25.8099 37.2051 25.2465 36.9717 24.8228 36.548L24.0235 35.7487L28.4853 31.2869C30.0023 29.7698 30.0023 27.3015 28.4853 25.7844C26.9683 24.2674 24.4999 24.2672 22.9829 25.7844L19.0269 29.7404L18.3862 29.7495C18.2695 29.7512 18.1534 29.7564 18.0374 29.7628L13.2017 24.927C12.3269 24.0522 12.3269 22.629 13.2017 21.7542L19.6003 15.3556C19.9815 14.9744 19.9815 14.3562 19.6003 13.9749C19.2191 13.5937 18.6008 13.5937 18.2196 13.9749L11.821 20.3735C10.185 22.0095 10.185 24.6716 11.821 26.3076L15.7304 30.2169C14.5427 30.6296 13.4537 31.3064 12.5411 32.2188C10.9714 33.7885 10.0943 35.8754 10.0712 38.0953L10.064 38.7889L0.53593 48.3172C0.15469 48.6984 0.15469 49.3166 0.53593 49.698C0.726598 49.8885 0.97643 49.9839 1.22626 49.9839C1.47609 49.9839 1.72602 49.8885 1.91659 49.698L11.7264 39.8882C11.907 39.7075 12.0096 39.4634 12.0123 39.208L12.0236 38.1157C12.0413 36.4097 12.7154 34.806 13.9217 33.5997C15.1217 32.3997 16.717 31.7258 18.4138 31.7019L19.4507 31.6873C19.7048 31.6837 19.9475 31.5812 20.1274 31.4015L24.3637 27.1652C25.1194 26.4095 26.3489 26.4095 27.1047 27.1652C27.8604 27.9208 27.8604 29.1506 27.1047 29.9062L20.7504 36.2606C20.3691 36.6418 20.3691 37.26 20.7504 37.6413C21.1316 38.0225 21.7498 38.0225 22.1311 37.6413L22.643 37.1295L23.4422 37.9287C24.2604 38.7469 25.3347 39.1558 26.4094 39.1557C27.4838 39.1556 28.5586 38.7467 29.3765 37.9287L33.912 33.3932L31.3861 40.2336C30.6434 42.2447 28.9682 43.7936 26.9052 44.3767L19.0962 46.5836C18.9356 46.629 18.7894 46.7148 18.6713 46.8328L17.1707 48.3334C16.7894 48.7146 16.7894 49.3328 17.1707 49.7142C17.3613 49.9047 17.6112 50.0001 17.861 50.0001C18.1108 50.0001 18.3608 49.9047 18.5513 49.7142L19.8721 48.3935L27.4362 46.2558C30.0983 45.5034 32.2595 43.505 33.2178 40.91L37.2121 30.0934L48.5231 18.7823C50.1587 17.1462 50.1587 14.4841 48.5227 12.8481Z" fill="#EF6D00"/>
<path d="M31.9012 26.4664C32.0918 26.657 32.3417 26.7524 32.5915 26.7524C32.8413 26.7524 33.0912 26.657 33.2818 26.4664L43.4144 16.3339C43.7956 15.9526 43.7956 15.3344 43.4144 14.9531C43.0331 14.572 42.4151 14.572 42.0336 14.9531L31.9012 25.0857C31.5199 25.4669 31.5199 26.0851 31.9012 26.4664Z" fill="#EF6D00"/>
<path d="M21.2223 18.5285L17.9593 21.7916C17.578 22.1728 17.578 22.791 17.9593 23.1723C18.1499 23.3629 18.3998 23.4583 18.6496 23.4583C18.8994 23.4583 19.1494 23.3629 19.3399 23.1723L22.603 19.9093C22.9842 19.5281 22.9842 18.9099 22.603 18.5285C22.2217 18.1474 21.6035 18.1474 21.2223 18.5285Z" fill="#EF6D00"/>
<path d="M22.0163 12.5347C22.2731 12.5347 22.525 12.4303 22.7066 12.2486C22.8881 12.0671 22.9926 11.8161 22.9926 11.5584C22.9926 11.3017 22.8881 11.0498 22.7066 10.8682C22.525 10.6866 22.2731 10.5822 22.0163 10.5822C21.7596 10.5822 21.5077 10.6865 21.3261 10.8682C21.1445 11.0499 21.04 11.3017 21.04 11.5584C21.04 11.8162 21.1445 12.0671 21.3261 12.2486C21.5077 12.4303 21.7597 12.5347 22.0163 12.5347Z" fill="#EF6D00"/>
<path d="M34.1063 13.9989C32.1946 13.9989 30.6392 12.4435 30.6392 10.5318C30.6392 8.61999 32.1946 7.06458 34.1063 7.06458C36.0181 7.06458 37.5734 8.61999 37.5734 10.5318C37.5734 12.4435 36.0181 13.9989 34.1063 13.9989ZM34.1063 9.01715C33.2711 9.01715 32.5917 9.69654 32.5917 10.5318C32.5917 11.367 33.2711 12.0464 34.1063 12.0464C34.9415 12.0464 35.6209 11.367 35.6209 10.5318C35.6209 9.69654 34.9415 9.01715 34.1063 9.01715Z" fill="#EF6D00"/>
</g>
<defs>
<clipPath id="clip0_20180_5861">
<rect width="50" height="50" fill="white"/>
</clipPath>
</defs>
</svg>
