<svg width="50" height="50" viewBox="0 0 50 50" fill="none" xmlns="http://www.w3.org/2000/svg">
<g clip-path="url(#clip0_20180_5857)">
<path d="M38.374 37.1717C38.7786 37.1717 39.1064 36.8438 39.1064 36.4393V32.8906C39.1064 32.486 38.7786 32.1582 38.374 32.1582H13.2549C12.8503 32.1582 12.5225 32.486 12.5225 32.8906V36.4393C12.5225 36.8438 12.8503 37.1717 13.2549 37.1717H38.374ZM29.2439 35.7068H26.547V33.623H29.2439V35.7068ZM30.7088 33.623H33.4058V35.7068H30.7088V33.623ZM25.0821 35.7068H22.3851V33.623H25.0821V35.7068ZM20.9202 35.7068H18.2232V33.623H20.9202V35.7068ZM37.6416 35.7068H34.8707V33.623H37.6416V35.7068ZM13.9873 33.623H16.7583V35.7068H13.9873V33.623Z" fill="#EF6D00"/>
<path d="M49.2676 45.2774H47.157V17.4436H47.4648C47.8694 17.4436 48.1973 17.1157 48.1973 16.7111C48.1973 16.3065 47.8694 15.9787 47.4648 15.9787H47.157V13.3865H47.4648C47.8694 13.3865 48.1973 13.0587 48.1973 12.6541C48.1973 12.2495 47.8694 11.9217 47.4648 11.9217C46.2615 11.9217 39.5303 11.9217 38.1637 11.9217C37.7591 11.9217 37.4312 12.2495 37.4312 12.6541C37.4312 13.0587 37.7591 13.3865 38.1637 13.3865H38.4715V15.9787H38.1637C37.7591 15.9787 37.4312 16.3065 37.4312 16.7111C37.4312 17.1157 37.7591 17.4436 38.1637 17.4436H38.4715V20.6324L33.4304 15.5913C32.9693 15.1301 32.3562 14.8762 31.704 14.8762H28.4846V9.02568H28.9099C29.3145 9.02568 29.6423 8.69785 29.6423 8.29326C29.6423 7.88867 29.3145 7.56084 28.9099 7.56084H28.4846V4.72266H28.9099C29.3145 4.72266 29.6423 4.39482 29.6423 3.99023C29.6423 3.58564 29.3145 3.25781 28.9099 3.25781C27.0587 3.25781 17.1292 3.25781 15.0678 3.25781C14.6632 3.25781 14.3354 3.58564 14.3354 3.99023C14.3354 4.39482 14.6632 4.72266 15.0678 4.72266H15.4932V7.56074H15.0678C14.6632 7.56074 14.3354 7.88858 14.3354 8.29317C14.3354 8.69776 14.6632 9.02559 15.0678 9.02559H15.4932V12.3118C15.4932 12.7164 15.821 13.0442 16.2256 13.0442C16.6302 13.0442 16.958 12.7164 16.958 12.3118V9.02568H27.0196V28.8678H16.9581V15.2403C16.9581 14.8357 16.6303 14.5079 16.2257 14.5079C15.8211 14.5079 15.4933 14.8357 15.4933 15.2403V28.8678H12.6856V25.5564H13.0385C13.4431 25.5564 13.7709 25.2285 13.7709 24.8239C13.7709 24.4193 13.4431 24.0915 13.0385 24.0915H12.6856V23.8423C12.6856 23.4377 12.3578 23.1099 11.9532 23.1099C11.5486 23.1099 11.2208 23.4377 11.2208 23.8423V24.0915H10.8681C10.4635 24.0915 10.1356 24.4193 10.1356 24.8239C10.1356 25.2285 10.4635 25.5564 10.8681 25.5564H11.2208V28.8678H9.63721C8.90947 28.8678 8.31728 29.4599 8.31728 30.1877V34.9837H6.87012C5.36973 34.9837 3.9542 35.6456 2.98652 36.7999C2.72666 37.1099 2.76729 37.5718 3.07725 37.8317C3.38721 38.0916 3.84912 38.0509 4.10898 37.7409C4.79766 36.9196 5.80391 36.4485 6.87002 36.4485H8.31719V38.4017H6.87012C5.96074 38.4017 5.2208 39.1415 5.2208 40.051V45.2775H3.26768V40.0673C3.26768 39.6627 2.93984 39.3349 2.53525 39.3349C2.13066 39.3349 1.80283 39.6627 1.80283 40.0673V45.2775H0.732422C0.327832 45.2775 0 45.6053 0 46.0099C0 46.4145 0.327832 46.7423 0.732422 46.7423H49.2676C49.6722 46.7423 50 46.4145 50 46.0099C50 45.6053 49.6722 45.2774 49.2676 45.2774ZM16.9581 7.56084V4.72266H27.0197V7.56074H16.9581V7.56084ZM39.9363 13.3865H45.6921V15.9787H39.9363V13.3865ZM31.704 16.341C31.9648 16.341 32.2101 16.4426 32.3944 16.6272L38.4715 22.7042V25.4662L31.5141 18.5087C31.3767 18.3714 31.1904 18.2942 30.9961 18.2942H28.4846V16.3411H31.704V16.341ZM6.68564 40.0509C6.68564 39.9492 6.76846 39.8664 6.87012 39.8664H8.31728V45.2773H6.68564V40.0509ZM9.78213 30.3325H31.999C32.4036 30.3325 32.7314 30.0047 32.7314 29.6001C32.7314 29.1955 32.4036 28.8677 31.999 28.8677H28.4847V19.759H30.6928L38.4715 27.5378V28.8677H34.9274C34.5229 28.8677 34.195 29.1955 34.195 29.6001C34.195 30.0047 34.5229 30.3325 34.9274 30.3325H41.8471V45.2774H31.948V40.1932C31.948 39.7886 31.6202 39.4608 31.2156 39.4608H20.4135C20.0089 39.4608 19.6811 39.7886 19.6811 40.1932V45.2774H9.78213C9.78213 44.6334 9.78213 30.9858 9.78213 30.3325ZM21.1459 45.2774V40.9256H30.4832V45.2774H21.1459ZM43.312 45.2774V30.1876C43.312 29.4599 42.7199 28.8677 41.9921 28.8677H39.9363C39.9363 26.5898 39.9363 19.8136 39.9363 17.4436H45.6921V45.2774H43.312Z" fill="#EF6D00"/>
</g>
<defs>
<clipPath id="clip0_20180_5857">
<rect width="50" height="50" fill="white"/>
</clipPath>
</defs>
</svg>
