<svg width="295" height="87" viewBox="0 0 295 87" fill="none" xmlns="http://www.w3.org/2000/svg">
<g filter="url(#filter0_i_20261_16)">
<rect width="295" height="87" rx="11" fill="#2194FF"/>
</g>
<rect x="2" y="2" width="291" height="83" rx="9" stroke="url(#paint0_linear_20261_16)" stroke-width="4"/>
<path opacity="0.31" d="M288 32.4418V20.609C287.946 18.3581 287.292 16.2263 286.176 14.6667C285.06 13.1071 283.57 12.2426 282.023 12.257H12.7505C11.9963 12.2557 11.2492 12.4707 10.552 12.8897C9.85481 13.3087 9.22113 13.9236 8.68714 14.6991C8.15315 15.4747 7.72932 16.3958 7.43984 17.4098C7.15036 18.4238 7.0009 19.5109 7 20.609V56.3074C7 56.3074 43.1178 38.1231 120.005 31.8716C191.478 26.0603 288 32.4418 288 32.4418Z" fill="url(#paint1_linear_20261_16)"/>
<path opacity="0.15" d="M9 81.3358H282.248C283.003 81.3371 283.751 81.122 284.449 80.7028C285.147 80.2836 285.781 79.6685 286.315 78.8927C286.849 78.1169 287.273 77.1955 287.562 76.1814C287.851 75.1673 288 74.0802 288 72.9824V55.3062C288 55.3062 276.558 71.7733 214.47 75.1807C160.189 78.1783 9 81.3358 9 81.3358Z" fill="white"/>
<defs>
<filter id="filter0_i_20261_16" x="0" y="0" width="295" height="91" filterUnits="userSpaceOnUse" color-interpolation-filters="sRGB">
<feFlood flood-opacity="0" result="BackgroundImageFix"/>
<feBlend mode="normal" in="SourceGraphic" in2="BackgroundImageFix" result="shape"/>
<feColorMatrix in="SourceAlpha" type="matrix" values="0 0 0 0 0 0 0 0 0 0 0 0 0 0 0 0 0 0 127 0" result="hardAlpha"/>
<feOffset dy="4"/>
<feGaussianBlur stdDeviation="6"/>
<feComposite in2="hardAlpha" operator="arithmetic" k2="-1" k3="1"/>
<feColorMatrix type="matrix" values="0 0 0 0 0 0 0 0 0 0 0 0 0 0 0 0 0 0 0.45 0"/>
<feBlend mode="normal" in2="shape" result="effect1_innerShadow_20261_16"/>
</filter>
<linearGradient id="paint0_linear_20261_16" x1="-2.78116e-07" y1="32" x2="295" y2="32" gradientUnits="userSpaceOnUse">
<stop stop-color="#2194FF"/>
<stop offset="0.522421" stop-color="#81C0FB"/>
<stop offset="1" stop-color="#108CFF"/>
</linearGradient>
<linearGradient id="paint1_linear_20261_16" x1="147.5" y1="2.81479" x2="147.5" y2="66.7299" gradientUnits="userSpaceOnUse">
<stop stop-color="#81C0FB"/>
<stop offset="1" stop-color="white"/>
</linearGradient>
</defs>
</svg>
