<svg width="395" height="87" viewBox="0 0 395 87" fill="none" xmlns="http://www.w3.org/2000/svg">
<g filter="url(#filter0_i_20104_2)">
<rect width="395" height="87" rx="11" fill="#2194FF"/>
</g>
<rect x="2" y="2" width="391" height="83" rx="9" stroke="url(#paint0_linear_20104_2)" stroke-width="4"/>
<path opacity="0.31" d="M386 29.7168V17.884C385.928 15.6331 385.05 13.5013 383.553 11.9417C382.055 10.3821 380.056 9.51763 377.981 9.53201H16.7151C15.7032 9.53069 14.7009 9.74568 13.7655 10.1647C12.8301 10.5837 11.9799 11.1986 11.2635 11.9741C10.5471 12.7497 9.97849 13.6708 9.59011 14.6848C9.20173 15.6988 9.00121 16.7859 9 17.884V53.5825C9 53.5825 57.4569 35.3982 160.611 29.1467C256.502 23.3353 386 29.7168 386 29.7168Z" fill="url(#paint1_linear_20104_2)"/>
<path opacity="0.15" d="M12 78.6112H378.29C379.302 78.6126 380.304 78.3975 381.24 77.9783C382.175 77.559 383.025 76.9439 383.741 76.1681C384.457 75.3923 385.025 74.4709 385.413 73.4568C385.801 72.4426 386 71.3556 386 70.2577V52.5814C386 52.5814 370.662 69.0487 287.434 72.456C214.669 75.4537 12 78.6112 12 78.6112Z" fill="white"/>
<defs>
<filter id="filter0_i_20104_2" x="0" y="0" width="395" height="91" filterUnits="userSpaceOnUse" color-interpolation-filters="sRGB">
<feFlood flood-opacity="0" result="BackgroundImageFix"/>
<feBlend mode="normal" in="SourceGraphic" in2="BackgroundImageFix" result="shape"/>
<feColorMatrix in="SourceAlpha" type="matrix" values="0 0 0 0 0 0 0 0 0 0 0 0 0 0 0 0 0 0 127 0" result="hardAlpha"/>
<feOffset dy="4"/>
<feGaussianBlur stdDeviation="6"/>
<feComposite in2="hardAlpha" operator="arithmetic" k2="-1" k3="1"/>
<feColorMatrix type="matrix" values="0 0 0 0 0 0 0 0 0 0 0 0 0 0 0 0 0 0 0.45 0"/>
<feBlend mode="normal" in2="shape" result="effect1_innerShadow_20104_2"/>
</filter>
<linearGradient id="paint0_linear_20104_2" x1="-3.72393e-07" y1="32" x2="395" y2="32" gradientUnits="userSpaceOnUse">
<stop stop-color="#2194FF"/>
<stop offset="0.522421" stop-color="#81C0FB"/>
<stop offset="1" stop-color="#108CFF"/>
</linearGradient>
<linearGradient id="paint1_linear_20104_2" x1="197.5" y1="0.0897599" x2="197.5" y2="64.005" gradientUnits="userSpaceOnUse">
<stop stop-color="#81C0FB"/>
<stop offset="1" stop-color="white"/>
</linearGradient>
</defs>
</svg>
